<svg width="195" height="34" viewBox="0 0 195 34" fill="none" xmlns="http://www.w3.org/2000/svg">
<g filter="url(#filter0_d_60_1770)">
<path d="M16.2516 2.92705C16.551 2.00574 17.8544 2.00574 18.1538 2.92705L20.3914 9.81383C20.5253 10.2258 20.9092 10.5048 21.3425 10.5048L28.5837 10.5048C29.5524 10.5048 29.9552 11.7444 29.1714 12.3138L23.3132 16.5701C22.9627 16.8247 22.816 17.2761 22.9499 17.6881L25.1876 24.5749C25.4869 25.4962 24.4324 26.2623 23.6487 25.6929L17.7905 21.4367C17.44 21.182 16.9654 21.182 16.6149 21.4367L10.7567 25.6929C9.97296 26.2623 8.91848 25.4962 9.21784 24.5749L11.4555 17.6881C11.5894 17.2761 11.4427 16.8247 11.0922 16.5701L5.23397 12.3138C4.45026 11.7444 4.85303 10.5048 5.82176 10.5048L13.0629 10.5048C13.4962 10.5048 13.8801 10.2258 14.014 9.81383L16.2516 2.92705Z" fill="#FDAE38"/>
</g>
<path d="M56.6579 2.92705C56.9572 2.00574 58.2607 2.00574 58.56 2.92705L60.7977 9.81383C60.9315 10.2258 61.3155 10.5048 61.7487 10.5048L68.9899 10.5048C69.9586 10.5048 70.3614 11.7444 69.5777 12.3138L63.7194 16.5701C63.369 16.8247 63.2223 17.2761 63.3562 17.6881L65.5938 24.5749C65.8932 25.4962 64.8387 26.2623 64.055 25.6929L58.1967 21.4367C57.8463 21.182 57.3717 21.182 57.0212 21.4367L51.1629 25.6929C50.3792 26.2623 49.3247 25.4962 49.6241 24.5749L51.8617 17.6881C51.9956 17.2761 51.849 16.8247 51.4985 16.5701L45.6402 12.3138C44.8565 11.7444 45.2593 10.5048 46.228 10.5048L53.4692 10.5048C53.9024 10.5048 54.2864 10.2258 54.4202 9.81383L56.6579 2.92705Z" fill="#FDAE38"/>
<path d="M97.0622 2.92705C97.3615 2.00574 98.665 2.00574 98.9643 2.92705L101.202 9.81383C101.336 10.2258 101.72 10.5048 102.153 10.5048L109.394 10.5048C110.363 10.5048 110.766 11.7444 109.982 12.3138L104.124 16.5701C103.773 16.8247 103.627 17.2761 103.76 17.6881L105.998 24.5749C106.297 25.4962 105.243 26.2623 104.459 25.6929L98.601 21.4367C98.2505 21.182 97.776 21.182 97.4255 21.4367L91.5672 25.6929C90.7835 26.2623 89.729 25.4962 90.0284 24.5749L92.266 17.6881C92.3999 17.2761 92.2532 16.8247 91.9028 16.5701L86.0445 12.3138C85.2608 11.7444 85.6636 10.5048 86.6323 10.5048L93.8735 10.5048C94.3067 10.5048 94.6907 10.2258 94.8245 9.81383L97.0622 2.92705Z" fill="#FDAE38"/>
<path d="M137.466 2.92705C137.766 2.00574 139.069 2.00574 139.369 2.92705L141.606 9.81383C141.74 10.2258 142.124 10.5048 142.557 10.5048L149.798 10.5048C150.767 10.5048 151.17 11.7444 150.386 12.3138L144.528 16.5701C144.178 16.8247 144.031 17.2761 144.165 17.6881L146.402 24.5749C146.702 25.4962 145.647 26.2623 144.864 25.6929L139.005 21.4367C138.655 21.182 138.18 21.182 137.83 21.4367L131.972 25.6929C131.188 26.2623 130.133 25.4962 130.433 24.5749L132.67 17.6881C132.804 17.2761 132.658 16.8247 132.307 16.5701L126.449 12.3138C125.665 11.7444 126.068 10.5048 127.037 10.5048L134.278 10.5048C134.711 10.5048 135.095 10.2258 135.229 9.81383L137.466 2.92705Z" fill="#FDAE38"/>
<path d="M177.873 2.92705C178.172 2.00574 179.476 2.00574 179.775 2.92705L182.013 9.81383C182.146 10.2258 182.53 10.5048 182.964 10.5048L190.205 10.5048C191.173 10.5048 191.576 11.7444 190.793 12.3138L184.934 16.5701C184.584 16.8247 184.437 17.2761 184.571 17.6881L186.809 24.5749C187.108 25.4962 186.054 26.2623 185.27 25.6929L179.412 21.4367C179.061 21.182 178.586 21.182 178.236 21.4367L172.378 25.6929C171.594 26.2623 170.54 25.4962 170.839 24.5749L173.077 17.6881C173.21 17.2761 173.064 16.8247 172.713 16.5701L166.855 12.3138C166.071 11.7444 166.474 10.5048 167.443 10.5048L174.684 10.5048C175.117 10.5048 175.501 10.2258 175.635 9.81383L177.873 2.92705Z" fill="#FDAE38"/>
<defs>
<filter id="filter0_d_60_1770" x="0.820312" y="2.23633" width="32.7656" height="31.6523" filterUnits="userSpaceOnUse" color-interpolation-filters="sRGB">
<feFlood flood-opacity="0" result="BackgroundImageFix"/>
<feColorMatrix in="SourceAlpha" type="matrix" values="0 0 0 0 0 0 0 0 0 0 0 0 0 0 0 0 0 0 127 0" result="hardAlpha"/>
<feOffset dy="4"/>
<feGaussianBlur stdDeviation="2"/>
<feComposite in2="hardAlpha" operator="out"/>
<feColorMatrix type="matrix" values="0 0 0 0 0 0 0 0 0 0 0 0 0 0 0 0 0 0 0.25 0"/>
<feBlend mode="normal" in2="BackgroundImageFix" result="effect1_dropShadow_60_1770"/>
<feBlend mode="normal" in="SourceGraphic" in2="effect1_dropShadow_60_1770" result="shape"/>
</filter>
</defs>
</svg>
